# xmcd
#
# Track frame offsets: 
#        150
#        19227
#        35811
#        57516
#        76362
#        90852
#        102783
#        118391
#        134000
#        153137
#        170497
#        199273
#
# Disc length: 3433 seconds
#
# Revision: 0
# Processed by: cddbd v1.5.1PL2 Copyright (c) Steve Scherf et al.
# Submitted via: ExactAudioCopy v0.95b4
#
DISCID=a10d670c
DTITLE=Patricia Vonne - Guitars and Castanets
DYEAR=2005
DGENRE=Country
TTITLE0=01_Joe's Gone Ridin'
TTITLE1=02_Texas Burning
TTITLE2=03_La Gitana de Triana
TTITLE3=04_Rebel Bride
TTITLE4=05_Lonesome Rider
TTITLE5=06_Guitarras y Castanuelas
TTITLE6=07_Long Season
TTITLE7=08_Fiesta Sangria
TTITLE8=09_Blood on the Tracks
TTITLE9=10_Sax Maniac
TTITLE10=11_La Cigarra
TTITLE11=12_not audio
EXTD=
EXTT0=
EXTT1=
EXTT2=
EXTT3=
EXTT4=
EXTT5=
EXTT6=
EXTT7=
EXTT8=
EXTT9=
EXTT10=
EXTT11=
PLAYORDER=
